<mxfile host="Electron" modified="2023-09-14T01:37:01.786Z" agent="Mozilla/5.0 (Macintosh; Intel Mac OS X 10_15_7) AppleWebKit/537.36 (KHTML, like Gecko) draw.io/21.6.8 Chrome/114.0.5735.289 Electron/25.5.0 Safari/537.36" etag="59dZWyE-3dS9ztAlFklw" version="21.6.8" type="device">
  <diagram id="u-Bgehv5GdRI6xBluCmY" name="Page-1">
    <mxGraphModel dx="1114" dy="806" grid="1" gridSize="10" guides="1" tooltips="1" connect="1" arrows="1" fold="1" page="1" pageScale="1" pageWidth="1600" pageHeight="900" math="0" shadow="0">
      <root>
        <mxCell id="0" />
        <mxCell id="1" parent="0" />
        <mxCell id="NKZoFBCDpuy2na6IxqbC-1" value="" style="rounded=0;whiteSpace=wrap;html=1;" parent="1" vertex="1">
          <mxGeometry x="40" y="40" width="560" height="800" as="geometry" />
        </mxCell>
        <mxCell id="NKZoFBCDpuy2na6IxqbC-2" value="" style="rounded=0;whiteSpace=wrap;html=1;" parent="1" vertex="1">
          <mxGeometry x="600" y="40" width="560" height="800" as="geometry" />
        </mxCell>
        <mxCell id="NKZoFBCDpuy2na6IxqbC-3" value="" style="rounded=0;whiteSpace=wrap;html=1;" parent="1" vertex="1">
          <mxGeometry x="1160" y="40" width="400" height="800" as="geometry" />
        </mxCell>
        <mxCell id="NKZoFBCDpuy2na6IxqbC-17" value="" style="group" parent="1" vertex="1" connectable="0">
          <mxGeometry x="40" y="40" width="560" height="50" as="geometry" />
        </mxCell>
        <mxCell id="NKZoFBCDpuy2na6IxqbC-15" value="" style="rounded=0;whiteSpace=wrap;html=1;fillColor=#5762b3;" parent="NKZoFBCDpuy2na6IxqbC-17" vertex="1">
          <mxGeometry width="560" height="50" as="geometry" />
        </mxCell>
        <mxCell id="NKZoFBCDpuy2na6IxqbC-16" value="&lt;font color=&quot;#ffffff&quot; style=&quot;font-size: 24px;&quot;&gt;User Edge, Field Deployed Compute&lt;/font&gt;" style="text;strokeColor=none;align=center;fillColor=none;html=1;verticalAlign=middle;whiteSpace=wrap;rounded=0;" parent="NKZoFBCDpuy2na6IxqbC-17" vertex="1">
          <mxGeometry x="21.538461538461537" y="10" width="527.6923076923076" height="30" as="geometry" />
        </mxCell>
        <mxCell id="NKZoFBCDpuy2na6IxqbC-20" value="" style="group;fillColor=none;" parent="1" vertex="1" connectable="0">
          <mxGeometry x="600" y="40" width="560" height="50" as="geometry" />
        </mxCell>
        <mxCell id="NKZoFBCDpuy2na6IxqbC-18" value="" style="rounded=0;whiteSpace=wrap;html=1;fillColor=#d5e8d4;strokeColor=#82b366;" parent="NKZoFBCDpuy2na6IxqbC-20" vertex="1">
          <mxGeometry width="560" height="50" as="geometry" />
        </mxCell>
        <mxCell id="NKZoFBCDpuy2na6IxqbC-19" value="&lt;font style=&quot;font-size: 24px;&quot;&gt;Service Provider Edge, Regional Compute&lt;/font&gt;" style="text;strokeColor=none;align=center;fillColor=#d5e8d4;html=1;verticalAlign=middle;whiteSpace=wrap;rounded=0;" parent="NKZoFBCDpuy2na6IxqbC-20" vertex="1">
          <mxGeometry x="21.538461538461537" y="10" width="527.6923076923076" height="30" as="geometry" />
        </mxCell>
        <mxCell id="NKZoFBCDpuy2na6IxqbC-23" value="" style="group" parent="1" vertex="1" connectable="0">
          <mxGeometry x="1160" y="40" width="400" height="50" as="geometry" />
        </mxCell>
        <mxCell id="NKZoFBCDpuy2na6IxqbC-21" value="" style="rounded=0;whiteSpace=wrap;html=1;fillColor=#E7DBF0;" parent="NKZoFBCDpuy2na6IxqbC-23" vertex="1">
          <mxGeometry width="400" height="50" as="geometry" />
        </mxCell>
        <mxCell id="NKZoFBCDpuy2na6IxqbC-22" value="&lt;font style=&quot;font-size: 24px;&quot;&gt;Global and Cloud Compute&lt;/font&gt;" style="text;strokeColor=none;align=center;fillColor=none;html=1;verticalAlign=middle;whiteSpace=wrap;rounded=0;" parent="NKZoFBCDpuy2na6IxqbC-23" vertex="1">
          <mxGeometry x="50" y="10" width="300" height="30" as="geometry" />
        </mxCell>
        <mxCell id="rkRexL7u3ubiK1zSjF01-2" value="" style="endArrow=none;html=1;rounded=0;exitX=0.001;exitY=0.697;exitDx=0;exitDy=0;exitPerimeter=0;entryX=1.002;entryY=0.702;entryDx=0;entryDy=0;entryPerimeter=0;" parent="1" source="NKZoFBCDpuy2na6IxqbC-1" target="NKZoFBCDpuy2na6IxqbC-3" edge="1">
          <mxGeometry width="50" height="50" relative="1" as="geometry">
            <mxPoint x="780" y="380" as="sourcePoint" />
            <mxPoint x="830" y="330" as="targetPoint" />
          </mxGeometry>
        </mxCell>
        <mxCell id="rkRexL7u3ubiK1zSjF01-3" value="" style="endArrow=none;html=1;rounded=0;exitX=0.004;exitY=0.352;exitDx=0;exitDy=0;exitPerimeter=0;entryX=1.005;entryY=0.347;entryDx=0;entryDy=0;entryPerimeter=0;" parent="1" source="NKZoFBCDpuy2na6IxqbC-1" target="NKZoFBCDpuy2na6IxqbC-3" edge="1">
          <mxGeometry width="50" height="50" relative="1" as="geometry">
            <mxPoint x="810" y="370" as="sourcePoint" />
            <mxPoint x="860" y="320" as="targetPoint" />
          </mxGeometry>
        </mxCell>
        <mxCell id="rkRexL7u3ubiK1zSjF01-4" value="&lt;font style=&quot;font-size: 24px;&quot;&gt;Infrastructure&lt;/font&gt;" style="text;strokeColor=none;align=center;fillColor=none;html=1;verticalAlign=middle;whiteSpace=wrap;rounded=0;rotation=-90;" parent="1" vertex="1">
          <mxGeometry x="-60" y="700" width="160" height="30" as="geometry" />
        </mxCell>
        <mxCell id="rkRexL7u3ubiK1zSjF01-5" value="&lt;font style=&quot;font-size: 24px;&quot;&gt;Platform&lt;/font&gt;" style="text;strokeColor=none;align=center;fillColor=none;html=1;verticalAlign=middle;whiteSpace=wrap;rounded=0;rotation=-90;" parent="1" vertex="1">
          <mxGeometry x="-45" y="435" width="130" height="30" as="geometry" />
        </mxCell>
        <mxCell id="rkRexL7u3ubiK1zSjF01-6" value="&lt;font style=&quot;font-size: 24px;&quot;&gt;Application&lt;/font&gt;" style="text;strokeColor=none;align=center;fillColor=none;html=1;verticalAlign=middle;whiteSpace=wrap;rounded=0;rotation=-90;" parent="1" vertex="1">
          <mxGeometry x="-60" y="190" width="160" height="30" as="geometry" />
        </mxCell>
        <mxCell id="dV2BF6gwbEOyX98F7W6L-15" style="edgeStyle=elbowEdgeStyle;rounded=0;orthogonalLoop=1;jettySize=auto;html=1;startArrow=classic;startFill=1;" parent="1" source="dV2BF6gwbEOyX98F7W6L-2" edge="1">
          <mxGeometry relative="1" as="geometry">
            <mxPoint x="429.9999999999998" y="838.0000000000002" as="sourcePoint" />
            <mxPoint x="1345" y="542.5" as="targetPoint" />
            <Array as="points">
              <mxPoint x="430" y="705" />
            </Array>
          </mxGeometry>
        </mxCell>
        <mxCell id="dV2BF6gwbEOyX98F7W6L-2" value="&lt;font style=&quot;font-size: 14px;&quot; color=&quot;#4277bb&quot;&gt;POS&lt;/font&gt;" style="points=[];aspect=fixed;html=1;align=center;shadow=0;dashed=0;image;image=img/lib/allied_telesis/computer_and_terminals/POS_Printer.svg;fontSize=14;" parent="1" vertex="1">
          <mxGeometry x="410" y="724" width="37.2" height="32.400000000000006" as="geometry" />
        </mxCell>
        <mxCell id="dV2BF6gwbEOyX98F7W6L-17" style="edgeStyle=elbowEdgeStyle;rounded=0;orthogonalLoop=1;jettySize=auto;html=1;startArrow=classic;startFill=1;" parent="1" source="dV2BF6gwbEOyX98F7W6L-4" edge="1">
          <mxGeometry relative="1" as="geometry">
            <mxPoint x="241" y="730.5599999999997" as="sourcePoint" />
            <mxPoint x="1345" y="517.5" as="targetPoint" />
            <Array as="points">
              <mxPoint x="241" y="650" />
            </Array>
          </mxGeometry>
        </mxCell>
        <mxCell id="dV2BF6gwbEOyX98F7W6L-4" value="&lt;font style=&quot;font-size: 14px;&quot;&gt;OTHER&lt;br style=&quot;font-size: 14px;&quot;&gt;THINGS&lt;/font&gt;" style="points=[];aspect=fixed;html=1;align=center;shadow=0;dashed=0;image;image=img/lib/allied_telesis/computer_and_terminals/Tablet.svg;fontColor=#4277BB;fontSize=14;" parent="1" vertex="1">
          <mxGeometry x="230" y="623.56" width="22" height="46.44" as="geometry" />
        </mxCell>
        <mxCell id="dV2BF6gwbEOyX98F7W6L-6" value="&lt;font style=&quot;font-size: 14px;&quot;&gt;CAMERAS&lt;/font&gt;" style="points=[];aspect=fixed;html=1;align=center;shadow=0;dashed=0;image;image=img/lib/allied_telesis/security/Surveillance_Camera_Ceiling.svg;fontColor=#4277BB;fontSize=14;" parent="1" vertex="1">
          <mxGeometry x="490" y="771" width="37.2" height="35.4" as="geometry" />
        </mxCell>
        <mxCell id="dV2BF6gwbEOyX98F7W6L-18" style="edgeStyle=elbowEdgeStyle;rounded=0;orthogonalLoop=1;jettySize=auto;html=1;startArrow=classic;startFill=1;" parent="1" source="dV2BF6gwbEOyX98F7W6L-9" edge="1">
          <mxGeometry relative="1" as="geometry">
            <mxPoint x="129.99999999999977" y="713.9999999999998" as="sourcePoint" />
            <mxPoint x="1345" y="506.5000000000002" as="targetPoint" />
            <Array as="points">
              <mxPoint x="130" y="609" />
            </Array>
          </mxGeometry>
        </mxCell>
        <mxCell id="dV2BF6gwbEOyX98F7W6L-9" value="&lt;span style=&quot;font-size: 14px;&quot;&gt;SENSORS&lt;br style=&quot;font-size: 14px;&quot;&gt;&lt;/span&gt;" style="aspect=fixed;perimeter=ellipsePerimeter;html=1;align=center;shadow=0;dashed=0;fontColor=#4277BB;labelBackgroundColor=#ffffff;fontSize=14;spacingTop=3;image;image=img/lib/ibm/users/sensor.svg;" parent="1" vertex="1">
          <mxGeometry x="110" y="610" width="40" height="39" as="geometry" />
        </mxCell>
        <mxCell id="dV2BF6gwbEOyX98F7W6L-16" style="edgeStyle=elbowEdgeStyle;rounded=0;orthogonalLoop=1;jettySize=auto;html=1;startArrow=classic;startFill=1;" parent="1" source="dV2BF6gwbEOyX98F7W6L-11" edge="1">
          <mxGeometry relative="1" as="geometry">
            <mxPoint x="339.9999999999998" y="781.9999999999998" as="sourcePoint" />
            <mxPoint x="1345" y="530.5" as="targetPoint" />
            <Array as="points">
              <mxPoint x="340" y="683" />
            </Array>
          </mxGeometry>
        </mxCell>
        <mxCell id="dV2BF6gwbEOyX98F7W6L-11" value="&lt;font style=&quot;font-size: 14px;&quot;&gt;ROBOTS&lt;/font&gt;" style="aspect=fixed;perimeter=ellipsePerimeter;html=1;align=center;shadow=0;dashed=0;fontColor=#4277BB;labelBackgroundColor=#ffffff;fontSize=14;spacingTop=3;image;image=img/lib/ibm/users/user.svg;strokeColor=#4277BB;strokeWidth=2;" parent="1" vertex="1">
          <mxGeometry x="320" y="670" width="40" height="40" as="geometry" />
        </mxCell>
        <mxCell id="dV2BF6gwbEOyX98F7W6L-14" value="" style="edgeStyle=elbowEdgeStyle;rounded=0;orthogonalLoop=1;jettySize=auto;html=1;startArrow=block;startFill=1;" parent="1" edge="1">
          <mxGeometry relative="1" as="geometry">
            <mxPoint x="1345" y="555" as="sourcePoint" />
            <mxPoint x="508" y="771" as="targetPoint" />
            <Array as="points">
              <mxPoint x="508" y="630" />
            </Array>
          </mxGeometry>
        </mxCell>
        <mxCell id="dV2BF6gwbEOyX98F7W6L-12" value="&lt;font color=&quot;#4277bb&quot;&gt;IOT HUB&lt;/font&gt;" style="image;aspect=fixed;html=1;points=[];align=center;fontSize=14;image=img/lib/azure2/iot/IoT_Hub.svg;" parent="1" vertex="1">
          <mxGeometry x="1361" y="508" width="29" height="29" as="geometry" />
        </mxCell>
        <mxCell id="dV2BF6gwbEOyX98F7W6L-19" value="" style="points=[[0.005,0.09,0],[0.08,0,0],[0.76,0.25,0],[1,0.92,0],[0.91,0.995,0],[0.57,0.995,0],[0.045,0.955,0],[0.005,0.43,0]];verticalLabelPosition=bottom;sketch=0;html=1;verticalAlign=top;aspect=fixed;align=center;pointerEvents=1;shape=mxgraph.cisco19.3g_4g_indicator;fillColor=#005073;strokeColor=none;" parent="1" vertex="1">
          <mxGeometry x="820" y="467" width="32" height="32" as="geometry" />
        </mxCell>
      </root>
    </mxGraphModel>
  </diagram>
</mxfile>
